<?xml version="1.0" encoding="utf-8"?>
<!-- Generator: Adobe Illustrator 21.1.0, SVG Export Plug-In . SVG Version: 6.00 Build 0)  -->
<svg version="1.1" id="Calque_1" xmlns="http://www.w3.org/2000/svg" xmlns:xlink="http://www.w3.org/1999/xlink" x="0px" y="0px"
	 viewBox="0 0 432 432" style="enable-background:new 0 0 432 432;" xml:space="preserve">
<style type="text/css">
	.st0{fill:#E7267A;}
	.st1{fill:#020203;}
	.st2{fill:#921D25;}
	.st3{fill:#BD8540;}
	.st4{fill:#A3282E;}
	.st5{fill:#754D24;}
	.st6{fill:#B7D7E5;}
	.st7{fill:#E7E6E6;}
	.st8{fill:#E52521;}
	.st9{fill:#412413;}
	.st10{fill:#603914;}
	.st11{fill:#009245;}
	.st12{fill:#8C633A;}
	.st13{fill:#FFFFFF;}
	.st14{fill:#E52629;}
	.st15{fill:#F2F2F2;}
	.st16{fill:#EAA35C;}
	.st17{fill:#CDCCCC;}
	.st18{fill:#DC7B18;}
	.st19{fill:#014837;}
	.st20{fill:#EB5B28;}
	.st21{fill:#C69C6C;}
	.st22{fill:#191818;}
	.st23{fill:#728947;}
	.st24{fill:#D8870A;}
	.st25{fill:#617338;}
	.st26{fill:#111111;}
	.st27{fill:#A91916;}
	.st28{fill:#841811;}
	.st29{fill:#DC6422;}
	.st30{fill:#C01818;}
	.st31{fill:#941914;}
	.st32{fill:#C4E2EE;}
	.st33{fill:#E1CEBB;}
	.st34{fill:#F2F0E2;}
	.st35{fill:#DD1115;}
	.st36{fill:#B21917;}
	.st37{fill:#17172F;}
	.st38{fill:#F4A5A7;}
	.st39{fill:#E8A611;}
	.st40{fill:#100B0B;}
	.st41{fill:#E8871D;}
</style>
<g>
	<g>
		<path d="M67.9,113.3c0-7.7,1.2-14.3,3.8-20.6c5.9-14.7,19.7-16.3,24.5-4c2.4,6.1,3.5,12.5,4,19.1c0.7,8,0,15.9-1.8,23.7
			c-0.6,2.7-1.6,5.3-2.9,7.7c-1.3,2.2-2.9,4-4.9,5.4c-4.8,3.4-10,1.8-13.2-1.4c-1.3-1.3-2.4-2.9-3.3-4.7c-3-5.6-4.7-11.7-5.6-18.1
			C68,117.7,67.9,115.1,67.9,113.3z M89.2,87.2c-1.7,1.1-4.3,8.3-5.1,11.2c-2.1,8.1-2.6,16.3-2,24.7c0.4,5.1,1.8,9.9,4,14.3
			c1.2,2.5,1.9,2.6,3.7,0.5c1.6-1.8,2.5-4.1,3.1-6.4c1.4-4.8,2.1-9.7,2.2-14.7c0.1-3.6,0-7.2-0.3-10.7C94.2,100,92.1,89.8,89.2,87.2
			z"/>
		<path d="M116.8,125.4c1.2,17.6,3.7,21.4-5.7,21c-8.1-0.3-7.7-38.9-7.5-45.1c0.2-5.3,0.8-10.5,2.1-15.7c0.4-1.8,1.1-3.4,2.8-4.3
			c2.4-1.3,4.7-1,6.9,0.3c1.3,0.8,1.8,2.1,1.6,3.5c-0.2,1.5-0.4,3.1-0.6,4.6c0.7,0.1,0.9-0.5,1.3-0.8c2.1-1.7,4.3-3.1,7.1-3.6
			c2.1-0.4,4,0.1,5.8,1.3c2.2,1.4,3.6,3.4,4.7,5.7c2.3,5,2.6,10.3,1.9,15.7c-0.6,4.8-2.5,9.2-5.9,12.7
			C124.8,127.6,117.9,125.2,116.8,125.4z M115.4,105.7c0.1,4,0.3,7.8,0.6,11.7c0.2,2.1,0.2,2.2,2.2,2.8c0.4,0.1,0.8,0.2,1.2,0.2
			c3.6,0.3,6.5-1.2,8.7-3.9c2.6-3.1,3.8-6.7,4.1-10.6c0.4-4.2,0-8.3-2-12.1c-2-3.7-4.3-4.4-7.6-1.9C118,95.2,115.1,99.7,115.4,105.7
			z"/>
		<path d="M140.7,105.6c0-5.8,0.2-12.2,1.7-18.5c0.3-1.3,0.7-2.5,1.3-3.7c1-1.9,2.5-2.9,4.7-3.1c4-0.5,8.1-0.1,12.1,0.1
			c0.4,0,0.8,0.1,1.2,0.3c1.2,0.4,1.8,1.4,1.7,2.5c-0.1,1.1-1,2-2.2,2.1c-0.8,0.1-1.7,0-2.5-0.1c-0.4,0-0.7-0.1-1.1-0.1
			c-2.2-0.2-2.2-0.2-2.5,2c-0.7,4.1-1.3,8.1-1.9,12.2c-1,7.4-1.3,14.7-0.7,22.1c0.1,0.9,0.1,1.8,0.2,2.7c0,0.7,0.3,1,1.1,1
			c1,0,2,0,3,0c0.7,0,1.3,0.2,1.9,0.5c0.9,0.6,1.3,1.7,1,2.7c-0.3,1.1-1.4,1.8-2.7,1.8c-0.8,0-1.5-0.2-2.3-0.2
			c-1.2,0-1.3,0.1-1.2,1.2c0.3,2.9,0.6,5.7,0.9,8.6c0.1,1.1,0.2,1.2,1.3,1c1.3-0.3,2.6-0.4,3.8-0.8c1.7-0.6,3.1,0.1,3.6,1.5
			c0.4,1.3-0.5,2.8-2.1,3.3c-1,0.3-2.1,0.5-3.1,0.6c-3,0.4-5.9,1-9,1.1c-3,0-3.8-0.4-5-3.5c-0.6-1.6-0.7-3.3-1-5
			c-0.7-4.7-1.1-9.4-1.6-14.1C141.1,117.9,141,112,140.7,105.6z"/>
		<path d="M180.2,90.6c0.8-0.5,1.1-1.2,1.5-1.8c2.2-3,4.7-5.5,8.2-6.5c2.7-0.8,5.2-0.2,7.4,1.8c2.1,1.9,3.3,4.5,4.1,7.4
			c3.1,11.9-1.3,30.5-16.9,35.8c-1,0.3-1.9,0.7-2.9,1c0.2,0.8,0.8,0.9,1.2,1.1c3.1,1.8,6.3,3.5,9.6,4.8c0.8,0.3,1.6,0.5,2.4,0.6
			c1.9,0.2,3,2,2.6,4c-0.3,1.8-1.9,2.8-3.6,2.2c-3.8-1.3-7.4-2.9-10.9-4.8c-0.6-0.3-1.1-0.8-1.9-0.7c0,1.9,0.4,3.8,0.4,5.6
			c0.2,3.7-1.6,5-4.1,5c-0.7,0-1.3,0.1-1.9,0.2c-2.5,0.4-4.4-0.9-5.3-3.7c-1-3.3-1.6-6.8-2-10.3c-1.2-9.9-1.8-19.9-1.4-29.9
			c0.3-6,0.7-12,2-17.9c0.7-3.2,1.6-3.8,4.5-4.2c1.3-0.2,2.7-0.1,4.1,0c2.7,0.2,3.9,2,3.6,5.1C180.7,87.1,180.5,88.7,180.2,90.6z
			 M178.9,109.7c0.1,4.4,0.3,8.1,0.6,11.8c0.1,1.2,0.3,1.4,1.2,1.1c3.7-1.2,7.4-2.7,10.1-6c4.8-5.8,6.8-12.7,6-20.6
			c-0.2-2-0.6-3.9-1.6-5.5c-1.4-2.5-3.3-3.1-5.6-1.7c-0.6,0.3-1.1,0.8-1.6,1.3c-1.2,1.1-2.2,2.4-3.1,3.9c-1.8,2.8-3.1,5.9-4.5,9
			C179.4,105.2,178.5,107.6,178.9,109.7z"/>
		<path d="M205.3,132.3c-0.2-5.7,0.4-11.4,0.9-17.1c0.6-6.6,1.1-13.3,2.2-19.8c0.6-3.2,1.2-6.4,2.2-9.6c0.3-0.8,0.6-1.6,1-2.4
			c1.7-3.3,5.9-4.1,9.1-1.8c1.2,0.8,2.1,1.9,2.8,3c2.2,3.3,3.8,6.8,4.9,10.5c1.6,5.5,2.5,11.2,3.6,16.8c0.9,4.8,1.7,9.6,2.3,14.4
			c0.6,4.5,1.3,9,1.6,13.5c0,0.5,0,0.9,0,1.4c0,1.9-1.2,3.1-3,3.7c-1,0.3-2,0.6-3.1,0.8c-2.2,0.4-4-0.6-4.3-2.6
			c-0.3-1.8-0.5-3.7-0.7-5.5c-0.1-0.5-0.1-1-0.2-1.6c-0.1-0.7-0.3-1-1.4-0.9c-3.7,0.5-7.4,0.8-11.1,1.2c-1.6,0.2-1.7,0.2-1.7,1.6
			c0,1.9,0,3.8,0,5.7c0,1.1-0.4,1.9-1.5,2.3c-1.5,0.7-3.2-0.1-3.5-1.6c-0.2-0.7-0.2-1.5-0.2-2.2C205.3,139,205.3,135.7,205.3,132.3z
			 M210.6,132c4.1-0.4,8.1-0.8,12-1.2c1.2-0.1,1.3-0.2,1.2-1.3c-0.2-2-0.5-4-0.8-6c-0.9-6.1-1.8-12.1-2.7-18.2
			c-0.8-5.3-1.6-10.7-2.9-15.9c-0.3-1.1-0.5-2.2-1.2-3.1c-0.6,0.7-0.7,1.5-0.9,2.3c-2,7.6-2.8,15.3-3.5,23c-0.3,3.8-0.7,7.6-1,11.3
			C210.5,125.9,210.5,128.9,210.6,132z"/>
		<path d="M248.9,86.4c-1.8-0.2-3.6,0-5.3,0c-0.7,0-1.3,0.1-2,0c-1.5-0.1-2.6-1.1-2.6-2.5c-0.1-1.4,1-2.6,2.4-2.8
			c1.5-0.2,3-0.3,4.4-0.3c7.3-0.3,14.5-0.6,21.8-0.5c0.7,0,1.4,0,2.1,0.2c1.2,0.5,1.9,1.4,1.8,2.7c0,1.2-0.8,2.1-2.1,2.5
			c-0.6,0.2-1.2,0.1-1.8,0c-1.5-0.3-3.1-0.1-4.6,0c-0.8,0-1.1,0.4-1.2,1.2c-0.7,6-1.4,11.9-1.6,18c-0.2,5.6,0,11.2,0.2,16.8
			c0.1,3.2,0.3,6.5,0.4,9.7c0.2,3.2,0.1,6.5-0.2,9.7c-0.3,3-1.4,4.3-4.3,4.8c-1,0.2-2,0.3-3,0.4c-2.8,0.3-4.5-0.9-5.4-3.7
			c-0.6-2-0.9-4.1-1.2-6.2c-0.9-7.4-1.2-14.8-0.9-22.3c0.4-7.4,0.9-14.7,1.9-22.1C248.2,90.3,248.6,88.4,248.9,86.4z"/>
		<path d="M274.7,115.9c-0.1-7.4,0.2-14.7,0.5-22c0.1-3,0.3-6,0.3-9c0-2.4,2.1-4.6,4.2-4.4c1.7,0.2,3.4,0,5.2,0.2
			c0.6,0.1,1.2,0.1,1.8,0.2c2.9,0.7,4,2.4,3.6,5.7c-1.3,12.4-1.6,24.8-1.2,37.2c0.2,5.3,0.4,10.7,0.6,16c0,1,0,2,0,3
			c-0.2,2.2-1.4,3.6-3.4,3.6c-2.2,0.1-4.4,0.1-6.6-0.2c-3-0.4-4.3-2-4.7-5.5c-0.3-2.2-0.3-4.4-0.3-6.6
			C274.7,128,274.7,121.9,274.7,115.9z"/>
		<path d="M293.5,113.3c0-7.7,1.2-14.3,3.8-20.6c5.9-14.7,19.7-16.3,24.5-4c2.4,6.1,3.5,12.5,4,19.1c0.7,8,0,15.9-1.8,23.7
			c-0.6,2.7-1.6,5.3-2.9,7.7c-1.3,2.2-2.9,4-4.9,5.4c-4.8,3.4-10,1.8-13.2-1.4c-1.3-1.3-2.4-2.9-3.3-4.7c-3-5.6-4.7-11.7-5.6-18.1
			C293.7,117.7,293.5,115.1,293.5,113.3z M314.8,87.2c-1.7,1.1-4.3,8.3-5.1,11.2c-2.1,8.1-2.6,16.3-2,24.7c0.4,5.1,1.8,9.9,4,14.3
			c1.2,2.5,1.9,2.6,3.7,0.5c1.6-1.8,2.5-4.1,3.1-6.4c1.4-4.8,2.1-9.7,2.2-14.7c0.1-3.6,0-7.2-0.3-10.7
			C319.8,100,317.7,89.8,314.8,87.2z"/>
		<path d="M335.8,96.7c-1.1,7.7-1.7,15.2-1.4,22.8c0.4,7.4,1.1,14.9,3,22.1c0,0.2,0.1,0.4,0.1,0.6c0.3,1.9-0.5,3.5-1.9,3.8
			c-1.5,0.4-2.9-0.7-3.3-2.7c-1.2-5.7-2.1-11.5-2.6-17.3c-0.5-5.8-0.6-11.6-0.3-17.3c0.4-6.3,1-12.5,2.2-18.7
			c0.3-1.4,0.4-2.8,0.8-4.1c0.6-2.1,1.9-3.2,3.9-3.3c2-0.1,4-0.1,6.1-0.1c2.8,0,4.1,1,5,4c2.1,7.2,4.1,14.4,5.8,21.7
			c1.1,4.8,2.6,9.3,4.3,13.9c0.1,0.2,0.2,0.4,0.6,0.6c-0.1-0.8-0.1-1.5-0.2-2.3c0-0.8-0.1-1.5-0.1-2.3c-0.6-6.9-0.8-13.9-1-20.8
			c-0.1-4.4,0.2-8.9,0.4-13.3c0-0.6,0-1.2,0-1.7c0.1-1.8,1.3-3.2,2.8-3.2c1.4,0,2.5,1.3,2.5,3.2c-0.1,2.8-0.2,5.5-0.3,8.3
			c-0.2,5.3,0,10.5,0.2,15.8c0.2,5.4,0.6,10.8,0.9,16.2c0.3,4.8,0.7,9.5,0.7,14.3c0,1.9-0.1,3.9-0.4,5.8c-0.2,1.5-1,2.5-2.3,2.9
			c-2.3,0.8-4.8,1.2-7.2,1.1c-1.6-0.1-2.8-1-3.6-2.5c-0.7-1.2-1.1-2.4-1.6-3.7c-4.3-11.3-7.6-23-10.7-34.7c-0.7-2.5-1.3-5.1-1.9-7.6
			C336.3,97.5,336.3,97.1,335.8,96.7z"/>
	</g>
	<g>
		<path d="M213.8,216.6c-1.2-8-2.3-15.9-3.6-23.9c-1.1-7-2.1-14-3.8-20.9c-0.3-1.4-0.6-2.8-1.6-4.1c-0.8,1-0.9,2-1.2,3
			c-2.6,9.9-3.7,20.1-4.6,30.2c-0.4,5-0.9,9.9-1.3,14.9c-0.3,3.9-0.3,7.7-0.2,11.8c5.4-0.5,10.6-1,15.8-1.5c1.6-0.2,1.7-0.2,1.5-1.6
			C214.6,221.8,214.2,219.2,213.8,216.6z"/>
		<path d="M132.6,169.3c-1.7-0.9-3.4-1.7-5.5-1.9c-2.2,16.6-1.6,32.9,0,49.7c7.5-3.3,12.6-8.4,16-15.2c2.4-4.9,3.1-10,1.9-15.3
			C143.3,179.1,139.5,173.1,132.6,169.3z"/>
		<path d="M129.1,237.5c0.1,0.9,0.6,1,1.3,0.7c2-0.8,3.8-1.7,5.1-3.5c1.6-2.3,1.5-4-0.6-5.8c-1.8-1.6-4-2.6-6.8-3
			C128.4,230,128.8,233.8,129.1,237.5z"/>
		<path d="M67.9,152.8V253h296.2V152.8H67.9z M144.2,212.3c-2.7,3.3-5.9,6.1-9.7,8.4c1.2,0.7,2.3,1.4,3.3,2c7,4.8,7.5,12.1,1.4,17.9
			c-2.1,2-4.7,3.3-7.5,4.1c-3.5,1.1-7.2,1.5-10.8,1.7c-4.3,0.3-6.4-1.4-7.2-5.5c-0.6-3.3-1.1-6.6-1.5-9.9
			c-1.6-13.8-2.4-27.7-2.7-41.7c-0.2-7.4,0.1-14.8,0.8-22.1c0.1-1.1,0.3-2.1,0.5-3.2c0.3-1.9,1.7-2.9,3.4-3.4
			c3.4-1,6.9-1.2,10.4-0.8c16.4,2,25.8,14.2,27.5,28C153.2,197.3,150,205.2,144.2,212.3z M183.3,244.7c-3,0.5-6,1-9,1.3
			c-2.6,0.2-5.1,0.7-7.7,0.5c-1.3-0.1-2.7-0.2-3.9-0.5c-2.6-0.6-4.1-2.4-4.8-4.9c-0.9-3.1-1.1-6.3-1.3-9.5
			c-0.2-4.2-0.3-8.4-0.1-12.7c0.6-13.7,2.2-32.7,3.8-46.3c0.4-3,0.9-6,1.5-9c0.7-3.5,2.6-4.8,6.1-4c2.3,0.5,4.7,0.2,7,0.6
			c3.3,0.5,4.8,2.2,4.6,5.6c-0.2,4.2-2.1,13.5-2.6,17.7c-1,7.3-1.8,14.7-2.2,22.1c-0.6,10.5-0.1,20.9-0.3,31.4c0,0.3,0,0.6,0,0.9
			c-0.1,1.1,0.5,1.3,1.5,1.2c2-0.3,4-0.6,6-1c2.4-0.5,4.1,0.4,4.6,2.4C187,242.6,185.8,244.3,183.3,244.7z M230.9,239.9
			c-0.1,2.4-1.5,4-4,4.9c-1.3,0.4-2.7,0.8-4,1.1c-2.8,0.6-5.2-0.8-5.7-3.4c-0.4-2.4-0.6-4.8-0.9-7.2c-0.1-0.7-0.2-1.4-0.3-2.1
			c-0.1-1-0.4-1.4-1.8-1.2c-4.9,0.6-9.8,1-14.6,1.5c-2.2,0.2-2.2,0.2-2.2,2.1c0,2.5,0,5,0,7.5c0,1.4-0.5,2.5-1.9,3.1
			c-1.9,0.9-4.3-0.2-4.7-2.1c-0.2-0.9-0.2-1.9-0.2-2.9c0-4.4,0-8.7,0-13.1c-0.2-7.5,0.5-15,1.1-22.4c0.8-8.7,1.4-17.4,2.9-26.1
			c0.7-4.2,1.6-8.5,2.9-12.6c0.3-1.1,0.8-2.1,1.3-3.1c2.3-4.3,7.7-5.4,11.9-2.4c1.5,1.1,2.7,2.5,3.7,4c2.9,4.3,5,8.9,6.4,13.8
			c2.1,7.3,3.3,14.7,4.7,22c1.1,6.3,2.3,12.6,3.1,18.9c0.7,5.9,1.7,11.8,2.1,17.8C231,238.6,231,239.2,230.9,239.9z M274.6,178.8
			c-1.6,0.4-3.3-0.6-4-2.5c-0.4-1.2-0.7-2.4-1.3-3.5c-1.7-3.1-1.5-3.9-5.3-1.3c-4.5,3-7.1,7.4-8.6,12.5c-1.6,5.4-2.4,10.9-2.5,16.6
			c-0.1,9.2,1.3,18.2,4.8,26.8c0.9,2.1,1.9,4.1,3.1,6.1c0.4,0.7,0.8,1.5,1.7,2c0.9-0.9,1.4-2.1,1.9-3.2c1.2-2.9,2.2-5.9,2.6-9
			c0.3-2,1.6-3.3,3.3-3.3c1.9,0,3.4,1.6,3.5,3.7c0,0.5,0,1-0.1,1.4c-1.3,5.3-2.8,10.6-6,15.1c-1.3,1.9-2.8,3.5-4.8,4.7
			c-3.9,2.4-7.8,1.9-11.5-0.4c-3.2-2-5.4-4.9-7.2-8.2c-3.1-5.4-5-11.3-6.4-17.3c-2-8.6-3.1-17.2-2.4-26c0.6-7.1,2-13.9,5.6-20.1
			c2.4-4.2,5.5-7.8,9.7-10.3c4.1-2.5,8.5-3.8,13.4-2.9c2.4,0.5,4.6,1.5,6.4,3.1c3.4,3,5.5,6.7,6.6,11.1c0.1,0.2,0.1,0.5,0.1,0.7
			C277.5,176.7,276.5,178.4,274.6,178.8z M322.3,216.9c-0.8,1.6-2.6,2.3-4.4,1.7c-0.4-0.2-0.8-0.4-1.3-0.6
			c-6.2-3.1-12.4-6.3-18.4-9.9c-0.3-0.2-0.5-0.3-1-0.5c0,2.1,0.2,4,0.4,5.9c1,8.1,2.9,16.1,3.8,24.3c0.1,1.2,0.2,2.3-0.1,3.5
			c-0.4,1.6-1.4,2.8-2.9,3.5c-2.2,1-4.6,1.6-7,1.8c-3.1,0.3-5-1-5.9-4.1c-1-3.3-1.5-6.7-2.1-10.1c-1.9-11.7-2.5-23.5-1.8-35.3
			c0.5-9.6,1.1-19.2,2.5-28.7c0.3-1.7,0.4-3.4,0.7-5.1c0.3-1.8,1.3-2.9,3.1-3.4c1.9-0.6,3.6-0.8,5.4,0.1c1.3,0.6,2.9,0.6,4.3,0.8
			c3.5,0.6,5,2.7,4.1,6.2c-1.3,5.3-2.9,10.6-3.6,16c-0.4,2.8-0.7,5.5-1.1,8.3c0.2,0,0.3,0.1,0.5,0.1c3.1-3.1,5.9-6.4,8.4-10
			c3.3-4.6,6.4-9.2,9-14.3c0.4-0.7,0.8-1.4,1.3-1.9c1.2-1.2,2.7-1.4,4.1-0.6c1.3,0.7,1.8,2.1,1.6,3.6c-0.1,0.8-0.5,1.5-0.9,2.1
			c-5.5,10.3-12.3,19.6-20.4,27.9c-0.6,0.6-1.3,1.1-1.7,2c0.4,0.7,1.2,1,1.8,1.4c5.9,3.8,12.2,7,18.5,10.1c0.6,0.3,1.3,0.6,1.9,1
			C322.6,213.7,323,215.4,322.3,216.9z"/>
	</g>
	<g>
		<path d="M67.9,306.4c0-13.6,0.7-24.7,2.1-35.8c0.2-1.4,0.5-2.8,0.9-4.1c1.1-3.8,3.6-5.6,7.8-6.2c5.6-0.7,11.2-0.3,16.7,0.6
			c1.4,0.2,2.8,0.4,4.2,0.8c1.9,0.5,2.9,2,2.6,3.8c-0.3,1.7-1.7,2.9-3.8,2.7c-2.8-0.2-5.6-0.7-8.4-1.1c-1.6-0.2-1.6-0.2-1.8,1.3
			c-1.4,10.3-2.4,20.6-2.4,31c0,8,0.3,16.1,1,24.1c0.2,1.9,0.3,1.9,2.3,2.1c0.9,0.1,1.8,0.2,2.7,0.4c1.9,0.5,3,2,2.8,3.7
			c-0.2,1.7-1.6,2.8-3.7,2.9c-0.9,0-2.2-0.6-2.8,0.3c-0.4,0.7,0.1,1.7,0.2,2.5c0.4,3.2,1,6.3,1.3,9.5c0.3,3.8-0.8,5.2-4.6,6.4
			c-1.7,0.5-3.3,1.1-5,1.5c-3.5,0.9-5.6-0.2-6.8-3.4c-2-5.7-3-11.5-3.7-17.4C68.3,322.7,67.8,313.3,67.9,306.4z"/>
		<path d="M125.7,274.3c1.2-0.8,1.6-1.7,2.2-2.5c3.2-4.2,6.6-7.8,11.5-9.2c3.9-1.1,7.3-0.3,10.4,2.6c3,2.7,4.7,6.4,5.8,10.5
			c4.3,16.7-1.9,43-23.9,50.5c-1.3,0.5-2.7,0.9-4,1.4c0.3,1.1,1.1,1.2,1.7,1.6c4.4,2.6,8.9,4.9,13.6,6.7c1.1,0.4,2.2,0.7,3.4,0.8
			c2.7,0.2,4.3,2.8,3.7,5.6c-0.5,2.5-2.6,3.9-5.1,3.1c-5.3-1.8-10.5-4-15.4-6.8c-0.8-0.4-1.6-1.1-2.6-1c0,2.7,0.5,5.3,0.6,8
			c0.3,5.2-2.3,7-5.7,7.1c-0.9,0-1.8,0.2-2.7,0.3c-3.6,0.6-6.3-1.2-7.4-5.2c-1.4-4.7-2.3-9.6-2.9-14.5c-1.6-14-2.6-28.1-2-42.2
			c0.4-8.5,1-16.9,2.8-25.2c1-4.4,2.3-5.4,6.3-5.9c1.9-0.2,3.9-0.1,5.8,0.1c3.8,0.3,5.5,2.9,5,7.1
			C126.5,269.5,126.1,271.7,125.7,274.3z M123.9,301.2c0.1,6.2,0.4,11.4,0.9,16.6c0.2,1.6,0.4,1.9,1.7,1.5
			c5.3-1.7,10.4-3.8,14.3-8.5c6.8-8.2,9.6-17.9,8.4-29.1c-0.3-2.8-0.9-5.4-2.2-7.8c-2-3.6-4.7-4.4-8-2.4c-0.8,0.5-1.6,1.1-2.3,1.8
			c-1.7,1.6-3.1,3.5-4.4,5.5c-2.5,3.9-4.4,8.3-6.3,12.6C124.5,294.9,123.4,298.3,123.9,301.2z"/>
		<path d="M161.2,310c-0.1-10.4,0.2-20.7,0.7-31.1c0.2-4.2,0.4-8.5,0.5-12.7c0.1-3.4,2.9-6.5,5.9-6.3c2.4,0.2,4.9,0.1,7.3,0.3
			c0.8,0.1,1.7,0.1,2.5,0.3c4.1,0.9,5.6,3.3,5.1,8c-1.9,17.4-2.3,34.9-1.7,52.5c0.2,7.5,0.6,15.1,0.9,22.6c0.1,1.4,0.1,2.8-0.1,4.2
			c-0.3,3-2,5.1-4.8,5.1c-3.1,0.1-6.2,0.1-9.3-0.3c-4.3-0.5-6.1-2.8-6.7-7.7c-0.4-3.1-0.4-6.2-0.4-9.3
			C161.1,327.2,161.2,318.6,161.2,310z"/>
		<path d="M232.1,303.2c0,9.3-1.4,17.5-4.1,25.4c-1.9,5.6-4.8,10.7-8.8,15.1c-3.4,3.8-7.5,6.2-12.3,8.1c-3.5,1.3-6.9,1.4-10.4,1.3
			c-3.1-0.1-5.8-2.2-6.8-5.2c-0.5-1.6-0.7-3.3-0.9-4.9c-0.8-8.9-1.2-17.7-1.2-26.6c0-12.1,0.7-24.2,1.7-36.2
			c0.4-5.3,1.1-10.5,2.7-15.6c0.1-0.3,0.2-0.6,0.2-1c0.5-3.1,2.1-4.3,5.2-4c0.9,0.1,1.9,0.2,2.7,0.5c5.7,2,11.3,4.2,16.3,7.8
			c7.6,5.6,11.8,13.4,14.1,22.3C231.7,294.7,232.2,299.4,232.1,303.2z M210.1,272.4c-7.7,23.6-6.9,47.3-2.6,71.1
			c2.9-1.4,5-3,6.9-5.3c3-3.7,5.3-7.7,6.8-12.2c3-8.8,4-18,3.4-27.3c-0.5-7.1-2.6-13.6-6.8-19.4
			C215.7,276.5,213.2,274.3,210.1,272.4z"/>
		<path d="M236.5,333.2c-0.3-8,0.5-16.1,1.2-24.1c0.8-9.3,1.5-18.7,3.1-28c0.8-4.6,1.7-9.1,3.1-13.5c0.4-1.1,0.8-2.3,1.4-3.3
			c2.4-4.6,8.3-5.8,12.8-2.6c1.7,1.2,2.9,2.7,4,4.3c3.1,4.6,5.4,9.6,6.9,14.8c2.2,7.8,3.6,15.7,5,23.7c1.2,6.8,2.5,13.5,3.3,20.3
			c0.8,6.4,1.8,12.7,2.3,19.1c0.1,0.7,0,1.3,0,2c-0.1,2.6-1.6,4.3-4.3,5.2c-1.4,0.5-2.9,0.9-4.3,1.2c-3,0.6-5.6-0.9-6.1-3.6
			c-0.4-2.6-0.6-5.2-1-7.8c-0.1-0.7-0.2-1.5-0.3-2.2c-0.1-1-0.5-1.5-1.9-1.3c-5.2,0.7-10.5,1.1-15.7,1.6c-2.3,0.2-2.3,0.2-2.3,2.3
			c0,2.7,0,5.4,0,8c0,1.5-0.6,2.6-2.1,3.3c-2.1,0.9-4.6-0.2-5-2.3c-0.2-1-0.3-2.1-0.3-3.1C236.4,342.6,236.5,337.9,236.5,333.2z
			 M243.8,332.7c5.8-0.6,11.4-1.1,16.9-1.7c1.7-0.2,1.8-0.2,1.7-1.8c-0.3-2.8-0.8-5.6-1.2-8.4c-1.3-8.6-2.5-17.1-3.8-25.7
			c-1.1-7.5-2.2-15-4.1-22.5c-0.4-1.5-0.6-3-1.7-4.4c-0.9,1-1,2.2-1.2,3.2c-2.8,10.7-4,21.5-4.9,32.5c-0.4,5.3-1,10.7-1.4,16
			C243.7,324.2,243.7,328.4,243.8,332.7z"/>
		<path d="M289.6,336.7c-7.3-21.2,3.4-19.7,4.6-15.2c0.6,2.2,0.8,24,15.2,18.9c13.5-4.8,10-24.8,10.1-31.8
			c-33.7,19.8-43.1-50.1-29.7-47.5c2,0.4,3.3,1.9,3.3,3.8c-0.4,17.7,5.2,47,19.4,38.4c16.6-10-2.6-43.3,11.3-43.5
			c12.1-0.2,16.6-1.9,16.8,5.8C343.6,374.9,297.5,359.5,289.6,336.7z"/>
		<path d="M364,266.5c-1.6,13.3-1.9,26.7-1.5,40.1c0.2,5.8,0.5,11.5,0.8,17.2c0,1.1,0,2.2-0.1,3.2c-0.2,2.3-1.7,3.9-4.1,3.9
			c-2.6,0.1-5.3,0.1-7.9-0.2c-3.7-0.4-5.2-2.2-5.7-5.9c-0.3-2.4-0.3-4.7-0.4-7.1c-0.1-6.6,0-13.1,0-19.7c-0.1-7.9,0.2-15.8,0.6-23.7
			c0.2-3.2,0.4-6.5,0.4-9.7c0-2.6,2.5-5,5.1-4.8c2.1,0.2,4.2,0.1,6.2,0.2c0.7,0.1,1.4,0.1,2.1,0.2
			C363.1,261.1,364.4,262.9,364,266.5z M362.5,345.2c0.1,6-3.5,7.9-7.9,7.9c-4.3,0-7.8-3.5-7.9-7.9c-0.1-6,3.5-7.9,7.9-7.9
			C358.9,337.3,362.4,340.9,362.5,345.2z"/>
	</g>
</g>
</svg>
