<svg width="135" height="135" viewBox="0 0 135 135" fill="none" xmlns="http://www.w3.org/2000/svg">
<path d="M68.4442 0.00627142C30.4837 -0.506421 -0.506445 30.4822 0.00627172 68.4409C0.512498 104.845 30.156 134.487 66.5621 134.994C104.529 135.513 135.513 104.524 134.994 66.5654C134.494 30.1545 104.85 0.512474 68.4442 0.00627142ZM109.468 106.195C109.339 106.335 109.18 106.445 109.004 106.516C108.828 106.588 108.638 106.62 108.447 106.61C108.257 106.6 108.072 106.549 107.904 106.459C107.736 106.369 107.59 106.244 107.476 106.091C104.573 102.294 101.019 99.0429 96.9779 96.4897C88.716 91.1876 78.2475 88.2672 67.5032 88.2672C56.7588 88.2672 46.2903 91.1876 38.0284 96.4897C33.9879 99.0417 30.4334 102.292 27.5307 106.088C27.4167 106.241 27.2705 106.366 27.1026 106.456C26.9346 106.545 26.749 106.597 26.5588 106.607C26.3687 106.617 26.1787 106.585 26.0023 106.513C25.826 106.441 25.6675 106.332 25.5383 106.192C16.0163 95.9133 10.6224 82.4825 10.3904 68.4734C9.86147 36.8974 35.7731 10.4678 67.3636 10.3899C98.9541 10.312 124.616 35.9629 124.616 67.4999C124.627 81.8469 119.216 95.6682 109.468 106.195Z" fill="url(#paint0_linear)"/>
<path d="M67.4971 28.125C59.3404 28.125 51.9653 31.0117 46.7247 36.2578C41.484 41.5039 38.8657 48.7578 39.4572 56.543C40.6567 71.875 53.2352 84.375 67.4971 84.375C81.759 84.375 94.3127 71.875 95.537 56.5469C96.1492 48.8359 93.5516 41.6484 88.224 36.3047C82.9627 31.0313 75.6001 28.125 67.4971 28.125Z" fill="url(#paint1_linear)"/>
<defs>
<linearGradient id="paint0_linear" x1="1.03635" y1="93.4197" x2="133.948" y2="93.4197" gradientUnits="userSpaceOnUse">
<stop stop-color="#8A04ED"/>
<stop offset="1" stop-color="#00B297"/>
</linearGradient>
<linearGradient id="paint1_linear" x1="39.8068" y1="67.0499" x2="95.1868" y2="67.0499" gradientUnits="userSpaceOnUse">
<stop stop-color="#8A04ED"/>
<stop offset="1" stop-color="#00B297"/>
</linearGradient>
</defs>
</svg>
