<svg width="24" height="20" viewBox="0 0 24 20" fill="none" xmlns="http://www.w3.org/2000/svg">
<path d="M8.03227 20C9.01808 20 9.81723 19.2538 9.81723 18.3333C9.81723 17.4128 9.01808 16.6666 8.03227 16.6666C7.04647 16.6666 6.24731 17.4128 6.24731 18.3333C6.24731 19.2538 7.04647 20 8.03227 20Z" fill="url(#paint0_linear)"/>
<path d="M20.527 20C21.5128 20 22.312 19.2538 22.312 18.3333C22.312 17.4128 21.5128 16.6666 20.527 16.6666C19.5412 16.6666 18.7421 17.4128 18.7421 18.3333C18.7421 19.2538 19.5412 20 20.527 20Z" fill="url(#paint1_linear)"/>
<path d="M23.6953 2.95729C23.5699 2.81409 23.412 2.69875 23.2329 2.61965C23.0538 2.54056 22.8581 2.49968 22.66 2.5H5.68342L5.34149 0.688542C5.30503 0.495588 5.19692 0.3208 5.03615 0.194879C4.87538 0.0689585 4.67224 -4.11674e-05 4.4624 1.84272e-08H0.892479C0.655779 1.84272e-08 0.428773 0.0877976 0.261401 0.244078C0.0940288 0.400358 0 0.61232 0 0.833333C0 1.05435 0.0940288 1.26631 0.261401 1.42259C0.428773 1.57887 0.655779 1.66667 0.892479 1.66667H3.71383L6.26074 15.1448C6.2972 15.3377 6.40531 15.5125 6.56608 15.6385C6.72685 15.7644 6.92999 15.8334 7.13983 15.8333H21.4195C21.6562 15.8333 21.8832 15.7455 22.0506 15.5893C22.218 15.433 22.312 15.221 22.312 15C22.312 14.779 22.218 14.567 22.0506 14.4107C21.8832 14.2545 21.6562 14.1667 21.4195 14.1667H7.8884L7.5738 12.5H21.0536C21.3631 12.4996 21.663 12.3994 21.9024 12.2164C22.1419 12.0333 22.3063 11.7786 22.3678 11.4953L23.9742 3.99531C24.0129 3.8138 24.008 3.62653 23.9598 3.44702C23.9115 3.26751 23.8212 3.10024 23.6953 2.95729Z" fill="url(#paint2_linear)"/>
<defs>
<linearGradient id="paint0_linear" x1="6.27472" y1="18.9733" x2="9.78942" y2="18.9733" gradientUnits="userSpaceOnUse">
<stop stop-color="#8A04ED"/>
<stop offset="1" stop-color="#00B297"/>
</linearGradient>
<linearGradient id="paint1_linear" x1="18.7695" y1="18.9733" x2="22.2842" y2="18.9733" gradientUnits="userSpaceOnUse">
<stop stop-color="#8A04ED"/>
<stop offset="1" stop-color="#00B297"/>
</linearGradient>
<linearGradient id="paint2_linear" x1="0.184239" y1="10.9566" x2="23.813" y2="10.9566" gradientUnits="userSpaceOnUse">
<stop stop-color="#8A04ED"/>
<stop offset="1" stop-color="#00B297"/>
</linearGradient>
</defs>
</svg>
