<svg width="128" height="128" viewBox="0 0 128 128" fill="none" xmlns="http://www.w3.org/2000/svg">
<circle cx="64" cy="64" r="64" fill="#449EA4"/>
<path d="M66.9297 77.2324C66.1159 77.5905 65.5299 77.5254 65.1719 77.0371C64.8138 76.5488 64.9603 76.0443 65.6113 75.5234C69.3874 72.724 71.3242 70.3314 71.4219 68.3457C71.5195 67.0111 70.901 65.4323 69.5664 63.6094C68.2643 61.7865 65.9531 59.3613 62.6328 56.334C55.8945 50.2142 52.5579 45.1361 52.623 41.0996C52.623 37.3887 55.4225 33.7917 61.0215 30.3086C61.2168 30.2109 62.0143 29.7552 63.4141 28.9414C64.8138 28.0951 65.8229 27.444 66.4414 26.9883C66.7344 26.7279 66.8483 26.4349 66.7832 26.1094C65.7741 21.6497 62.9746 19.4199 58.3848 19.4199C53.7298 19.4199 50.2467 22.3171 47.9355 28.1113C45.6243 33.873 44.8105 40.1719 45.4941 47.0078C46.666 58.9219 50.5072 67.8737 57.0176 73.8633C63.528 79.8203 70.9661 82.7988 79.332 82.7988C83.9544 82.7988 88.8047 81.5618 93.8828 79.0879C94.6315 78.7298 95.1849 78.8275 95.543 79.3809C95.901 79.9017 95.7383 80.4551 95.0547 81.041C87.2747 87.1934 78.388 90.2695 68.3945 90.2695C58.401 90.2695 50.1491 86.347 43.6387 78.502C37.1283 70.6243 33.6289 62.9258 33.1406 55.4062C32.457 44.5339 34.5241 35.3216 39.3418 27.7695C44.1595 20.2174 50.2467 16.4414 57.6035 16.4414C60.5983 16.4414 62.9909 17.2064 64.7812 18.7363C66.6042 20.2337 67.8574 22.0404 68.541 24.1562C68.7689 24.8073 69.1758 24.9538 69.7617 24.5957C72.6263 22.4798 75.2793 20.1523 77.7207 17.6133C78.7949 16.7995 80.0156 16.7669 81.3828 17.5156C82.7826 18.2318 84.0684 18.8828 85.2402 19.4688C86.3145 20.0872 87.6328 20.8197 89.1953 21.666C90.7578 22.5124 92.418 22.5612 94.1758 21.8125C94.8919 21.4544 95.429 21.4707 95.7871 21.8613C96.1777 22.2194 96.1615 22.6426 95.7383 23.1309C94.0781 24.7585 92.5319 26.2233 91.0996 27.5254C89.6673 28.7949 88.2676 30.0482 86.9004 31.2852C86.5749 31.6107 86.3633 31.7897 86.2656 31.8223C86.1354 31.8874 85.9727 31.9199 85.7773 31.9199C85.5169 31.9199 85.2077 31.806 84.8496 31.5781C84.5241 31.3503 84.2474 31.1712 84.0195 31.041C78.388 28.3066 74.498 26.9395 72.3496 26.9395C70.7871 27.0046 69.2083 27.6719 67.6133 28.9414C64.944 31.0247 63.5931 33.0755 63.5605 35.0938C63.4629 37.6328 65.4648 40.6764 69.5664 44.2246C78.0951 51.6139 82.5872 57.5059 83.043 61.9004C83.3685 66.0671 77.9974 71.1777 66.9297 77.2324Z" fill="black"/>
</svg>
