<svg width="16" height="16" viewBox="0 0 16 16" fill="none" xmlns="http://www.w3.org/2000/svg">
<circle cx="8" cy="8" r="8" fill="#449EA4"/>
<path d="M8.36621 10.5291C8.26449 10.5738 8.19124 10.5657 8.14648 10.5046C8.10173 10.4436 8.12004 10.3805 8.20142 10.3154C8.67342 9.96549 8.91553 9.66642 8.92773 9.41821C8.93994 9.25138 8.86263 9.05404 8.6958 8.82617C8.53304 8.59831 8.24414 8.29517 7.8291 7.91675C6.98682 7.15177 6.56974 6.51701 6.57788 6.01245C6.57788 5.54858 6.92782 5.09896 7.62769 4.66357C7.6521 4.65137 7.75179 4.5944 7.92676 4.49268C8.10173 4.38688 8.22786 4.3055 8.30518 4.24854C8.3418 4.21598 8.35604 4.17936 8.3479 4.13867C8.22176 3.58122 7.87183 3.30249 7.2981 3.30249C6.71623 3.30249 6.28084 3.66463 5.99194 4.38892C5.70304 5.10913 5.60132 5.89648 5.68677 6.75098C5.83325 8.24023 6.3134 9.35921 7.1272 10.1079C7.941 10.8525 8.87077 11.2249 9.9165 11.2249C10.4943 11.2249 11.1006 11.0702 11.7354 10.761C11.8289 10.7162 11.8981 10.7284 11.9429 10.7976C11.9876 10.8627 11.9673 10.9319 11.8818 11.0051C10.9093 11.7742 9.7985 12.1587 8.54932 12.1587C7.30013 12.1587 6.26864 11.6684 5.45483 10.6877C4.64103 9.70304 4.20361 8.74072 4.14258 7.80078C4.05713 6.44173 4.31551 5.2902 4.91772 4.34619C5.51994 3.40218 6.28084 2.93018 7.20044 2.93018C7.57479 2.93018 7.87386 3.0258 8.09766 3.21704C8.32552 3.40422 8.48218 3.63005 8.56763 3.89453C8.59611 3.97591 8.64697 3.99422 8.72021 3.94946C9.07829 3.68498 9.40991 3.39404 9.71509 3.07666C9.84937 2.97493 10.002 2.97087 10.1729 3.06445C10.3478 3.15397 10.5085 3.23535 10.655 3.30859C10.7893 3.3859 10.9541 3.47746 11.1494 3.58325C11.3447 3.68905 11.5522 3.69515 11.772 3.60156C11.8615 3.5568 11.9286 3.55884 11.9734 3.60767C12.0222 3.65243 12.0202 3.70532 11.9673 3.76636C11.7598 3.96981 11.5665 4.15291 11.3875 4.31567C11.2084 4.47437 11.0334 4.63102 10.8625 4.78564C10.8219 4.82633 10.7954 4.84871 10.7832 4.85278C10.7669 4.86092 10.7466 4.86499 10.7222 4.86499C10.6896 4.86499 10.651 4.85075 10.6062 4.82227C10.5655 4.79378 10.5309 4.7714 10.5024 4.75513C9.7985 4.41333 9.31226 4.24243 9.0437 4.24243C8.84839 4.25057 8.65104 4.33398 8.45166 4.49268C8.118 4.75309 7.94914 5.00944 7.94507 5.26172C7.93286 5.5791 8.18311 5.95955 8.6958 6.40308C9.76188 7.32674 10.3234 8.06323 10.3804 8.61255C10.4211 9.13338 9.74967 9.77222 8.36621 10.5291Z" fill="black"/>
</svg>
