<svg width="32" height="32" viewBox="0 0 32 32" fill="none" xmlns="http://www.w3.org/2000/svg">
<circle cx="16" cy="16" r="16" fill="#449EA4"/>
<path d="M16.9824 19.0581C16.779 19.1476 16.6325 19.1313 16.543 19.0093C16.4535 18.8872 16.4901 18.7611 16.6528 18.6309C17.5968 17.931 18.0811 17.3328 18.1055 16.8364C18.1299 16.5028 17.9753 16.1081 17.6416 15.6523C17.3161 15.1966 16.7383 14.5903 15.9082 13.8335C14.2236 12.3035 13.3895 11.034 13.4058 10.0249C13.4058 9.09717 14.1056 8.19792 15.5054 7.32715C15.5542 7.30273 15.7536 7.1888 16.1035 6.98535C16.4535 6.77376 16.7057 6.611 16.8604 6.49707C16.9336 6.43197 16.9621 6.35872 16.9458 6.27734C16.6935 5.16243 15.9937 4.60498 14.8462 4.60498C13.6825 4.60498 12.8117 5.32926 12.2339 6.77783C11.6561 8.21826 11.4526 9.79297 11.6235 11.502C11.9165 14.4805 12.8768 16.7184 14.5044 18.2158C16.132 19.7051 17.9915 20.4497 20.083 20.4497C21.2386 20.4497 22.4512 20.1405 23.7207 19.522C23.9079 19.4325 24.0462 19.4569 24.1357 19.5952C24.2253 19.7254 24.1846 19.8638 24.0137 20.0103C22.0687 21.5483 19.847 22.3174 17.3486 22.3174C14.8503 22.3174 12.7873 21.3368 11.1597 19.3755C9.53206 17.4061 8.65723 15.4814 8.53516 13.6016C8.36426 10.8835 8.88102 8.5804 10.0854 6.69238C11.2899 4.80436 12.8117 3.86035 14.6509 3.86035C15.3996 3.86035 15.9977 4.0516 16.4453 4.43408C16.901 4.80843 17.2144 5.26009 17.3853 5.78906C17.4422 5.95182 17.5439 5.98844 17.6904 5.89893C18.4066 5.36995 19.0698 4.78809 19.6802 4.15332C19.9487 3.94987 20.2539 3.94173 20.5957 4.12891C20.9456 4.30794 21.2671 4.4707 21.5601 4.61719C21.8286 4.77181 22.1582 4.95492 22.5488 5.1665C22.9395 5.37809 23.3545 5.3903 23.7939 5.20312C23.973 5.11361 24.1073 5.11768 24.1968 5.21533C24.2944 5.30485 24.2904 5.41064 24.1846 5.53271C23.7695 5.93962 23.383 6.30583 23.0249 6.63135C22.6668 6.94873 22.3169 7.26204 21.9751 7.57129C21.8937 7.65267 21.8408 7.69743 21.8164 7.70557C21.7839 7.72184 21.7432 7.72998 21.6943 7.72998C21.6292 7.72998 21.5519 7.7015 21.4624 7.64453C21.381 7.58757 21.3118 7.54281 21.2549 7.51025C19.847 6.82666 18.8745 6.48486 18.3374 6.48486C17.9468 6.50114 17.5521 6.66797 17.1533 6.98535C16.486 7.50618 16.1483 8.01888 16.1401 8.52344C16.1157 9.1582 16.6162 9.91911 17.6416 10.8062C19.7738 12.6535 20.8968 14.1265 21.0107 15.2251C21.0921 16.2668 19.7493 17.5444 16.9824 19.0581Z" fill="black"/>
</svg>
