<svg width="64" height="64" viewBox="0 0 64 64" fill="none" xmlns="http://www.w3.org/2000/svg">
<circle cx="32" cy="32" r="32" fill="#449EA4"/>
<path d="M32.9648 38.1162C32.5579 38.2952 32.265 38.2627 32.0859 38.0186C31.9069 37.7744 31.9801 37.5221 32.3057 37.2617C34.1937 35.862 35.1621 34.6657 35.2109 33.6729C35.2598 33.0055 34.9505 32.2161 34.2832 31.3047C33.6322 30.3932 32.4766 29.1807 30.8164 27.667C27.4473 24.6071 25.779 22.068 25.8115 20.0498C25.8115 18.1943 27.2113 16.3958 30.0107 14.6543C30.1084 14.6055 30.5072 14.3776 31.207 13.9707C31.9069 13.5475 32.4115 13.222 32.7207 12.9941C32.8672 12.8639 32.9242 12.7174 32.8916 12.5547C32.387 10.3249 30.9873 9.20996 28.6924 9.20996C26.3649 9.20996 24.6234 10.6585 23.4678 13.5557C22.3122 16.4365 21.9053 19.5859 22.2471 23.0039C22.833 28.9609 24.7536 33.4368 28.0088 36.4316C31.264 39.4102 34.9831 40.8994 39.166 40.8994C41.4772 40.8994 43.9023 40.2809 46.4414 39.0439C46.8158 38.8649 47.0924 38.9137 47.2715 39.1904C47.4505 39.4508 47.3691 39.7275 47.0273 40.0205C43.1374 43.0967 38.694 44.6348 33.6973 44.6348C28.7005 44.6348 24.5745 42.6735 21.3193 38.751C18.0641 34.8122 16.3145 30.9629 16.0703 27.2031C15.7285 21.7669 16.762 17.1608 19.1709 13.3848C21.5798 9.60872 24.6234 7.7207 28.3018 7.7207C29.7992 7.7207 30.9954 8.10319 31.8906 8.86816C32.8021 9.61686 33.4287 10.5202 33.7705 11.5781C33.8844 11.9036 34.0879 11.9769 34.3809 11.7979C35.8132 10.7399 37.1396 9.57617 38.3604 8.30664C38.8975 7.89974 39.5078 7.88346 40.1914 8.25781C40.8913 8.61589 41.5342 8.94141 42.1201 9.23438C42.6572 9.54362 43.3164 9.90983 44.0977 10.333C44.8789 10.7562 45.709 10.7806 46.5879 10.4062C46.946 10.2272 47.2145 10.2354 47.3936 10.4307C47.5889 10.6097 47.5807 10.8213 47.3691 11.0654C46.5391 11.8792 45.766 12.6117 45.0498 13.2627C44.3337 13.8975 43.6338 14.5241 42.9502 15.1426C42.7874 15.3053 42.6816 15.3949 42.6328 15.4111C42.5677 15.4437 42.4863 15.46 42.3887 15.46C42.2585 15.46 42.1038 15.403 41.9248 15.2891C41.762 15.1751 41.6237 15.0856 41.5098 15.0205C38.694 13.6533 36.749 12.9697 35.6748 12.9697C34.8936 13.0023 34.1042 13.3359 33.3066 13.9707C31.972 15.0124 31.2965 16.0378 31.2803 17.0469C31.2314 18.3164 32.2324 19.8382 34.2832 21.6123C38.5475 25.307 40.7936 28.2529 41.0215 30.4502C41.1842 32.5335 38.4987 35.0889 32.9648 38.1162Z" fill="black"/>
</svg>
