<svg width="96" height="96" viewBox="0 0 96 96" fill="none" xmlns="http://www.w3.org/2000/svg">
<circle cx="48" cy="48" r="48" fill="#449EA4"/>
<path d="M49.9473 57.1743C49.3369 57.4429 48.8975 57.394 48.6289 57.0278C48.3604 56.6616 48.4702 56.2832 48.9585 55.8926C51.7905 53.793 53.2432 51.9985 53.3164 50.5093C53.3896 49.5083 52.9258 48.3242 51.9248 46.957C50.9482 45.5898 49.2148 43.771 46.7246 41.5005C41.6709 36.9106 39.1685 33.1021 39.2173 30.0747C39.2173 27.2915 41.3169 24.5937 45.5161 21.9814C45.6626 21.9082 46.2607 21.5664 47.3105 20.9561C48.3604 20.3213 49.1172 19.833 49.5811 19.4912C49.8008 19.2959 49.8862 19.0762 49.8374 18.832C49.0806 15.4873 46.981 13.8149 43.5386 13.8149C40.0474 13.8149 37.4351 15.9878 35.7017 20.3335C33.9683 24.6548 33.3579 29.3789 33.8706 34.5059C34.7495 43.4414 37.6304 50.1553 42.5132 54.6475C47.396 59.1152 52.9746 61.3491 59.249 61.3491C62.7158 61.3491 66.3535 60.4214 70.1621 58.5659C70.7236 58.2974 71.1387 58.3706 71.4072 58.7856C71.6758 59.1763 71.5537 59.5913 71.041 60.0308C65.2061 64.645 58.541 66.9521 51.0459 66.9521C43.5508 66.9521 37.3618 64.0103 32.479 58.1265C27.5962 52.2183 24.9717 46.4443 24.6055 40.8047C24.0928 32.6504 25.6431 25.7412 29.2563 20.0771C32.8696 14.4131 37.4351 11.5811 42.9526 11.5811C45.1987 11.5811 46.9932 12.1548 48.3359 13.3022C49.7031 14.4253 50.6431 15.7803 51.1558 17.3672C51.3267 17.8555 51.6318 17.9653 52.0713 17.6968C54.2197 16.1099 56.2095 14.3643 58.0405 12.46C58.8462 11.8496 59.7617 11.8252 60.7871 12.3867C61.8369 12.9238 62.8013 13.4121 63.6802 13.8516C64.4858 14.3154 65.4746 14.8647 66.6465 15.4995C67.8184 16.1343 69.0635 16.1709 70.3818 15.6094C70.9189 15.3408 71.3218 15.353 71.5903 15.646C71.8833 15.9146 71.8711 16.2319 71.5537 16.5981C70.3086 17.8188 69.1489 18.9175 68.0747 19.894C67.0005 20.8462 65.9507 21.7861 64.9253 22.7139C64.6812 22.958 64.5225 23.0923 64.4492 23.1167C64.3516 23.1655 64.2295 23.1899 64.083 23.1899C63.8877 23.1899 63.6558 23.1045 63.3872 22.9336C63.1431 22.7627 62.9355 22.6284 62.7646 22.5308C58.541 20.48 55.6235 19.4546 54.0122 19.4546C52.8403 19.5034 51.6562 20.0039 50.46 20.9561C48.458 22.5186 47.4448 24.0566 47.4204 25.5703C47.3472 27.4746 48.8486 29.7573 51.9248 32.4185C58.3213 37.9604 61.6904 42.3794 62.0322 45.6753C62.2764 48.8003 58.248 52.6333 49.9473 57.1743Z" fill="black"/>
</svg>
